<svg id="visual" viewBox="0 0 960 540" width="960" height="540" xmlns="http://www.w3.org/2000/svg" xmlns:xlink="http://www.w3.org/1999/xlink" version="1.1"><rect x="0" y="0" width="960" height="540" fill="#121e3b"></rect><path d="M0 296L12.3 302.8C24.7 309.7 49.3 323.3 74 325.3C98.7 327.3 123.3 317.7 148 316.8C172.7 316 197.3 324 221.8 325.8C246.3 327.7 270.7 323.3 295.2 318.2C319.7 313 344.3 307 369 309.2C393.7 311.3 418.3 321.7 443 325C467.7 328.3 492.3 324.7 517 324C541.7 323.3 566.3 325.7 591 323.2C615.7 320.7 640.3 313.3 664.8 315C689.3 316.7 713.7 327.3 738.2 326C762.7 324.7 787.3 311.3 812 311.7C836.7 312 861.3 326 886 326.2C910.7 326.3 935.3 312.7 947.7 305.8L960 299L960 541L947.7 541C935.3 541 910.7 541 886 541C861.3 541 836.7 541 812 541C787.3 541 762.7 541 738.2 541C713.7 541 689.3 541 664.8 541C640.3 541 615.7 541 591 541C566.3 541 541.7 541 517 541C492.3 541 467.7 541 443 541C418.3 541 393.7 541 369 541C344.3 541 319.7 541 295.2 541C270.7 541 246.3 541 221.8 541C197.3 541 172.7 541 148 541C123.3 541 98.7 541 74 541C49.3 541 24.7 541 12.3 541L0 541Z" fill="#81dbef"></path><path d="M0 368L12.3 368.3C24.7 368.7 49.3 369.3 74 371C98.7 372.7 123.3 375.3 148 370.2C172.7 365 197.3 352 221.8 348.5C246.3 345 270.7 351 295.2 350.7C319.7 350.3 344.3 343.7 369 340.5C393.7 337.3 418.3 337.7 443 342C467.7 346.3 492.3 354.7 517 358C541.7 361.3 566.3 359.7 591 360.8C615.7 362 640.3 366 664.8 364.2C689.3 362.3 713.7 354.7 738.2 349.3C762.7 344 787.3 341 812 339.2C836.7 337.3 861.3 336.7 886 341.5C910.7 346.3 935.3 356.7 947.7 361.8L960 367L960 541L947.7 541C935.3 541 910.7 541 886 541C861.3 541 836.7 541 812 541C787.3 541 762.7 541 738.2 541C713.7 541 689.3 541 664.8 541C640.3 541 615.7 541 591 541C566.3 541 541.7 541 517 541C492.3 541 467.7 541 443 541C418.3 541 393.7 541 369 541C344.3 541 319.7 541 295.2 541C270.7 541 246.3 541 221.8 541C197.3 541 172.7 541 148 541C123.3 541 98.7 541 74 541C49.3 541 24.7 541 12.3 541L0 541Z" fill="#57bbde"></path><path d="M0 380L12.3 383.5C24.7 387 49.3 394 74 391.8C98.7 389.7 123.3 378.3 148 373.2C172.7 368 197.3 369 221.8 371.2C246.3 373.3 270.7 376.7 295.2 375.7C319.7 374.7 344.3 369.3 369 373.8C393.7 378.3 418.3 392.7 443 398.7C467.7 404.7 492.3 402.3 517 397.5C541.7 392.7 566.3 385.3 591 385C615.7 384.7 640.3 391.3 664.8 394.7C689.3 398 713.7 398 738.2 398.8C762.7 399.7 787.3 401.3 812 396C836.7 390.7 861.3 378.3 886 379C910.7 379.7 935.3 393.3 947.7 400.2L960 407L960 541L947.7 541C935.3 541 910.7 541 886 541C861.3 541 836.7 541 812 541C787.3 541 762.7 541 738.2 541C713.7 541 689.3 541 664.8 541C640.3 541 615.7 541 591 541C566.3 541 541.7 541 517 541C492.3 541 467.7 541 443 541C418.3 541 393.7 541 369 541C344.3 541 319.7 541 295.2 541C270.7 541 246.3 541 221.8 541C197.3 541 172.7 541 148 541C123.3 541 98.7 541 74 541C49.3 541 24.7 541 12.3 541L0 541Z" fill="#2f9ccc"></path><path d="M0 418L12.3 417.3C24.7 416.7 49.3 415.3 74 417.3C98.7 419.3 123.3 424.7 148 422.5C172.7 420.3 197.3 410.7 221.8 411.5C246.3 412.3 270.7 423.7 295.2 424.3C319.7 425 344.3 415 369 409C393.7 403 418.3 401 443 405.5C467.7 410 492.3 421 517 420.3C541.7 419.7 566.3 407.3 591 404.2C615.7 401 640.3 407 664.8 407.7C689.3 408.3 713.7 403.7 738.2 406.3C762.7 409 787.3 419 812 419.2C836.7 419.3 861.3 409.7 886 410.5C910.7 411.3 935.3 422.7 947.7 428.3L960 434L960 541L947.7 541C935.3 541 910.7 541 886 541C861.3 541 836.7 541 812 541C787.3 541 762.7 541 738.2 541C713.7 541 689.3 541 664.8 541C640.3 541 615.7 541 591 541C566.3 541 541.7 541 517 541C492.3 541 467.7 541 443 541C418.3 541 393.7 541 369 541C344.3 541 319.7 541 295.2 541C270.7 541 246.3 541 221.8 541C197.3 541 172.7 541 148 541C123.3 541 98.7 541 74 541C49.3 541 24.7 541 12.3 541L0 541Z" fill="#007cb8"></path><path d="M0 435L12.3 435C24.7 435 49.3 435 74 433.7C98.7 432.3 123.3 429.7 148 434.5C172.7 439.3 197.3 451.7 221.8 453.8C246.3 456 270.7 448 295.2 446.8C319.7 445.7 344.3 451.3 369 450.2C393.7 449 418.3 441 443 439.5C467.7 438 492.3 443 517 446.7C541.7 450.3 566.3 452.7 591 450.5C615.7 448.3 640.3 441.7 664.8 437.3C689.3 433 713.7 431 738.2 434.3C762.7 437.7 787.3 446.3 812 448.7C836.7 451 861.3 447 886 442.8C910.7 438.7 935.3 434.3 947.7 432.2L960 430L960 541L947.7 541C935.3 541 910.7 541 886 541C861.3 541 836.7 541 812 541C787.3 541 762.7 541 738.2 541C713.7 541 689.3 541 664.8 541C640.3 541 615.7 541 591 541C566.3 541 541.7 541 517 541C492.3 541 467.7 541 443 541C418.3 541 393.7 541 369 541C344.3 541 319.7 541 295.2 541C270.7 541 246.3 541 221.8 541C197.3 541 172.7 541 148 541C123.3 541 98.7 541 74 541C49.3 541 24.7 541 12.3 541L0 541Z" fill="#005ca1"></path><path d="M0 479L12.3 477C24.7 475 49.3 471 74 471C98.7 471 123.3 475 148 478.3C172.7 481.7 197.3 484.3 221.8 481.3C246.3 478.3 270.7 469.7 295.2 466.5C319.7 463.3 344.3 465.7 369 469.3C393.7 473 418.3 478 443 481C467.7 484 492.3 485 517 482.5C541.7 480 566.3 474 591 472.7C615.7 471.3 640.3 474.7 664.8 474.5C689.3 474.3 713.7 470.7 738.2 468C762.7 465.3 787.3 463.7 812 467.7C836.7 471.7 861.3 481.3 886 486.3C910.7 491.3 935.3 491.7 947.7 491.8L960 492L960 541L947.7 541C935.3 541 910.7 541 886 541C861.3 541 836.7 541 812 541C787.3 541 762.7 541 738.2 541C713.7 541 689.3 541 664.8 541C640.3 541 615.7 541 591 541C566.3 541 541.7 541 517 541C492.3 541 467.7 541 443 541C418.3 541 393.7 541 369 541C344.3 541 319.7 541 295.2 541C270.7 541 246.3 541 221.8 541C197.3 541 172.7 541 148 541C123.3 541 98.7 541 74 541C49.3 541 24.7 541 12.3 541L0 541Z" fill="#003d86"></path><path d="M0 521L12.3 518.3C24.7 515.7 49.3 510.3 74 506.2C98.7 502 123.3 499 148 500.5C172.7 502 197.3 508 221.8 508.5C246.3 509 270.7 504 295.2 501C319.7 498 344.3 497 369 500.2C393.7 503.3 418.3 510.7 443 512.7C467.7 514.7 492.3 511.3 517 507.2C541.7 503 566.3 498 591 495C615.7 492 640.3 491 664.8 492.3C689.3 493.7 713.7 497.3 738.2 502.3C762.7 507.3 787.3 513.7 812 514.5C836.7 515.3 861.3 510.7 886 505.5C910.7 500.3 935.3 494.7 947.7 491.8L960 489L960 541L947.7 541C935.3 541 910.7 541 886 541C861.3 541 836.7 541 812 541C787.3 541 762.7 541 738.2 541C713.7 541 689.3 541 664.8 541C640.3 541 615.7 541 591 541C566.3 541 541.7 541 517 541C492.3 541 467.7 541 443 541C418.3 541 393.7 541 369 541C344.3 541 319.7 541 295.2 541C270.7 541 246.3 541 221.8 541C197.3 541 172.7 541 148 541C123.3 541 98.7 541 74 541C49.3 541 24.7 541 12.3 541L0 541Z" fill="#171c68"></path></svg>